name C:\Users\antoi\Documents\MyRepositories\upper-imu-dc\Results\main_tracking\Case_79\ABD01_linearAccelerations_bodyFrame.mot
datacolumns 4
datarows 58
range 3.01000000 3.58000000
endheader 
time	radius_imu_x	radius_imu_y	radius_imu_z	
          3.01000000	         -2.64910117	          9.47973840	          2.01219508	
          3.02000000	         -2.74656695	          9.48863138	          2.06993936	
          3.03000000	         -2.84484797	          9.50254070	          2.13106293	
          3.04000000	         -2.93190570	          9.50672112	          2.19565997	
          3.05000000	         -3.02000093	          9.52259356	          2.26306503	
          3.06000000	         -3.10081834	          9.53334429	          2.32856086	
          3.07000000	         -3.17680793	          9.54534672	          2.39049580	
          3.08000000	         -3.24781492	          9.55703300	          2.44817331	
          3.09000000	         -3.31434825	          9.56813748	          2.49963616	
          3.10000000	         -3.37759929	          9.57871500	          2.54452017	
          3.11000000	         -3.43634484	          9.58834284	          2.58240856	
          3.12000000	         -3.48989033	          9.59704862	          2.61318858	
          3.13000000	         -3.53627344	          9.60476285	          2.63699276	
          3.14000000	         -3.57393428	          9.61167948	          2.65454848	
          3.15000000	         -3.60150652	          9.61806525	          2.66682869	
          3.16000000	         -3.61703327	          9.62403540	          2.67446420	
          3.17000000	         -3.61919956	          9.62976480	          2.67798367	
          3.18000000	         -3.60678613	          9.63520953	          2.67759351	
          3.19000000	         -3.57987893	          9.64041544	          2.67349036	
          3.20000000	         -3.53892182	          9.64519741	          2.66577967	
          3.21000000	         -3.48580738	          9.64945110	          2.65520460	
          3.22000000	         -3.42266334	          9.65299193	          2.64278779	
          3.23000000	         -3.35222922	          9.65575010	          2.63040561	
          3.24000000	         -3.27889298	          9.65782326	          2.62152073	
          3.25000000	         -3.20579753	          9.65931258	          2.61945876	
          3.26000000	         -3.13634158	          9.66045128	          2.62793696	
          3.27000000	         -3.07233299	          9.66139538	          2.64997430	
          3.28000000	         -3.01537787	          9.66229751	          2.68786485	
          3.29000000	         -2.96609679	          9.66315221	          2.74246186	
          3.30000000	         -2.92430044	          9.66377105	          2.81299010	
          3.31000000	         -2.88939229	          9.66380509	          2.89740458	
          3.32000000	         -2.86014062	          9.66274758	          2.99251705	
          3.33000000	         -2.83542297	          9.66008139	          3.09487310	
          3.34000000	         -2.81371831	          9.65530047	          3.20097174	
          3.35000000	         -2.79363333	          9.64797744	          3.30775864	
          3.36000000	         -2.77360552	          9.63773315	          3.41255826	
          3.37000000	         -2.75211779	          9.62423501	          3.51309934	
          3.38000000	         -2.72765201	          9.60718932	          3.60736465	
          3.39000000	         -2.69859471	          9.58634630	          3.69351515	
          3.40000000	         -2.66351589	          9.56156753	          3.77035037	
          3.41000000	         -2.62169202	          9.53285276	          3.83796604	
          3.42000000	         -2.57610751	          9.50031404	          3.89643831	
          3.43000000	         -2.52597155	          9.46380904	          3.94443016	
          3.44000000	         -2.46145255	          9.42281193	          3.98072042	
          3.45000000	         -2.40483736	          9.37840139	          4.01197682	
          3.46000000	         -2.34890340	          9.33134464	          4.04792822	
          3.47000000	         -2.30315934	          9.28242690	          4.08908067	
          3.48000000	         -2.24868553	          9.22970856	          4.12010938	
          3.49000000	         -2.20530319	          9.17462217	          4.15155343	
          3.50000000	         -2.17371556	          9.11612852	          4.16828396	
          3.51000000	         -2.10924961	          9.05552652	          4.19215110	
          3.52000000	         -2.09782367	          8.99574173	          4.23304770	
          3.53000000	         -2.10895955	          8.93648064	          4.28392271	
          3.54000000	         -2.10879449	          8.87701756	          4.33889852	
          3.55000000	         -2.11307032	          8.81705128	          4.39170555	
          3.56000000	         -2.12407833	          8.75622822	          4.43960850	
          3.57000000	         -2.13859340	          8.69732817	          4.50666695	
          3.58000000	         -2.16805925	          8.63897341	          4.57598227	
